<svg width="18" height="12" viewBox="0 0 18 12" fill="none" xmlns="http://www.w3.org/2000/svg">
<path d="M7.23242 6.80957C7.23242 8.24056 6.96354 9.32064 6.42578 10.0498C5.89258 10.7744 5.0791 11.1367 3.98535 11.1367C2.90983 11.1367 2.09863 10.7835 1.55176 10.0771C1.00944 9.36621 0.731445 8.31576 0.717773 6.92578V5.20312C0.717773 3.77214 0.984375 2.69889 1.51758 1.9834C2.05534 1.2679 2.87337 0.910156 3.97168 0.910156C5.06087 0.910156 5.87207 1.25879 6.40527 1.95605C6.94303 2.65332 7.21875 3.69694 7.23242 5.08691V6.80957ZM5.57129 4.9502C5.57129 4.01595 5.44368 3.33236 5.18848 2.89941C4.93327 2.46191 4.52767 2.24316 3.97168 2.24316C3.42936 2.24316 3.0306 2.45052 2.77539 2.86523C2.52018 3.27539 2.38574 3.91797 2.37207 4.79297V7.04883C2.37207 7.97852 2.50195 8.67122 2.76172 9.12695C3.02148 9.58268 3.42936 9.81055 3.98535 9.81055C4.51855 9.81055 4.91276 9.60091 5.16797 9.18164C5.42318 8.75781 5.55762 8.09701 5.57129 7.19922V4.9502ZM8.63379 2.96094C8.63379 2.35938 8.82747 1.86719 9.21484 1.48438C9.60221 1.09701 10.1104 0.90332 10.7393 0.90332C11.3773 0.90332 11.8877 1.09701 12.2705 1.48438C12.6579 1.86719 12.8516 2.37077 12.8516 2.99512V3.4873C12.8516 4.08431 12.6579 4.57422 12.2705 4.95703C11.8877 5.33984 11.3818 5.53125 10.7529 5.53125C10.1377 5.53125 9.62956 5.3444 9.22852 4.9707C8.83203 4.59245 8.63379 4.08431 8.63379 3.44629V2.96094ZM9.7959 3.4873C9.7959 3.80176 9.88249 4.05697 10.0557 4.25293C10.2334 4.44434 10.4658 4.54004 10.7529 4.54004C11.0355 4.54004 11.2633 4.44434 11.4365 4.25293C11.6097 4.05697 11.6963 3.79264 11.6963 3.45996V2.96094C11.6963 2.64648 11.6074 2.39128 11.4297 2.19531C11.2565 1.99935 11.0264 1.90137 10.7393 1.90137C10.4521 1.90137 10.222 2.00163 10.0488 2.20215C9.88021 2.39811 9.7959 2.65788 9.7959 2.98145V3.4873ZM13.4189 8.55957C13.4189 7.94889 13.6172 7.45443 14.0137 7.07617C14.4102 6.69792 14.916 6.50879 15.5312 6.50879C16.151 6.50879 16.6569 6.69792 17.0488 7.07617C17.4453 7.45443 17.6436 7.96484 17.6436 8.60742V9.09277C17.6436 9.68522 17.4521 10.1751 17.0693 10.5625C16.6911 10.9453 16.1829 11.1367 15.5449 11.1367C14.9069 11.1367 14.3919 10.9476 14 10.5693C13.6126 10.1865 13.4189 9.68294 13.4189 9.05859V8.55957ZM14.5811 9.09277C14.5811 9.40267 14.6699 9.65788 14.8477 9.8584C15.0299 10.0544 15.2624 10.1523 15.5449 10.1523C15.8366 10.1523 16.0645 10.0589 16.2285 9.87207C16.3971 9.68066 16.4814 9.41406 16.4814 9.07227V8.55957C16.4814 8.24056 16.3926 7.98535 16.2148 7.79395C16.0371 7.60254 15.8092 7.50684 15.5312 7.50684C15.2487 7.50684 15.0186 7.60254 14.8408 7.79395C14.6676 7.98535 14.5811 8.24967 14.5811 8.58691V9.09277ZM11.0947 10.2549L10.2402 9.7627L15.1006 1.9834L15.9551 2.47559L11.0947 10.2549Z" fill="white"/>
</svg>
