<svg width="34" height="30" viewBox="0 0 34 30" fill="none" xmlns="http://www.w3.org/2000/svg">
<path d="M2.14398 24.0257H3.50001C3.72601 24.0257 3.87668 23.875 3.87668 23.649V14.9102C3.87668 7.79856 9.28572 3.18806 17 3.18806C24.7143 3.18806 30.1233 7.79856 30.1233 14.9102V23.649C30.1233 23.875 30.274 24.0257 30.5 24.0257H31.856C32.519 24.0257 33.0162 23.6038 33.0162 22.971V14.2171C33.0162 5.93025 26.4319 0.340408 17.5424 0.340408H16.4576C7.56809 0.340408 0.983826 5.93025 0.983826 14.2171V22.971C0.983826 23.6038 1.48104 24.0257 2.14398 24.0257ZM7.05581 29.8415H8.84878C10.6568 29.8415 11.7266 28.8471 11.7266 27.1295V20.2439C11.7266 18.5262 10.6568 17.5318 8.84878 17.5318H7.05581C6.04633 17.5318 5.47378 18.0893 5.47378 19.0686V28.3047C5.47378 29.284 6.04633 29.8415 7.05581 29.8415ZM25.1663 29.8415H26.9593C27.9688 29.8415 28.5564 29.284 28.5564 28.3047V19.0686C28.5564 18.0742 27.9688 17.5318 26.9593 17.5318H25.1663C23.3583 17.5318 22.2885 18.5262 22.2885 20.2439V27.1295C22.2885 28.8471 23.3583 29.8415 25.1663 29.8415Z" fill="white"/>
</svg>
