<svg width="48" height="48" viewBox="0 0 48 48" fill="none" xmlns="http://www.w3.org/2000/svg">
<path d="M17.9474 39.8672C12.7998 39.8672 9.70119 38.018 9.70119 34.9319V28.16C7.53966 26.2609 6.27774 23.2247 6.27774 19.8638C6.27774 12.0548 11.3379 6.85715 18.9345 6.85715C26.4936 6.85715 31.5288 11.9423 31.5288 19.5889C31.5288 20.0137 31.5163 20.376 31.4788 20.7259L33.278 23.9494C33.7403 24.7615 33.9527 25.5362 33.9527 26.2609C33.9527 27.6352 33.0906 28.7472 31.5288 29.0721V31.6084C31.5288 34.1698 29.7671 35.4442 27.3182 35.1818L26.0688 35.0444C25.9938 38.068 22.9577 39.8672 17.9474 39.8672ZM17.9474 37.4558C21.5958 37.4558 23.7823 36.3313 23.7823 34.5196V32.8079C23.7823 32.5205 23.9572 32.3831 24.2321 32.4081L27.6056 32.7704C28.5926 32.8829 29.1174 32.458 29.1174 31.421V27.4478C29.1174 27.2479 29.2673 27.1105 29.4797 27.1105H30.1669C30.9666 27.1105 31.4288 26.7107 31.4288 26.0859C31.4288 25.7611 31.3164 25.3738 31.0915 24.9864L28.9924 21.2131C29.0799 20.6509 29.1299 20.1011 29.1299 19.5514C29.1299 13.3792 25.0567 9.26855 18.9345 9.26855C12.7873 9.26855 8.68914 13.5041 8.68914 19.8638C8.68914 22.9624 9.98855 25.6486 12.1251 26.948V34.5196C12.1251 36.3313 14.3116 37.4558 17.9474 37.4558Z" fill="white"/>
<path d="M42.7219 38.8099C42.3586 39.3373 41.7023 39.4662 41.175 39.1381C40.6242 38.7865 40.5539 38.0951 40.9523 37.4857C42.1828 35.6576 42.9211 33.2787 42.9211 30.806C42.9211 28.3217 42.2063 25.931 40.9523 24.1146C40.5539 23.5053 40.6242 22.8138 41.175 22.474C41.7023 22.1342 42.3586 22.2631 42.7219 22.7904C44.257 24.9349 45.1242 27.8295 45.1242 30.806C45.1242 33.7709 44.2453 36.6537 42.7219 38.8099Z" fill="white"/>
<path d="M37.9992 35.7045C37.6477 36.2084 36.9914 36.3256 36.4992 36.0092C35.9367 35.6224 35.8313 34.9428 36.2766 34.2865C36.9211 33.349 37.2844 32.1068 37.2844 30.806C37.2844 29.4935 36.9328 28.2396 36.2766 27.3256C35.8313 26.6693 35.9367 25.9779 36.4992 25.6146C36.9914 25.2748 37.6477 25.392 37.9992 25.8959C38.9367 27.1732 39.4992 28.9428 39.4992 30.806C39.4992 32.6576 38.9367 34.4388 37.9992 35.7045Z" fill="white"/>
</svg>
