<svg width="95" height="93" viewBox="0 0 95 93" fill="none" xmlns="http://www.w3.org/2000/svg">
<path d="M139.64 -7.88377C139.44 -8.48161 139.28 -9.07943 139.08 -9.67726C138.6 -11.2316 138.12 -12.6664 137.72 -14.1411C137.32 -15.6556 136.64 -16.8114 135.56 -17.8476C134.48 -18.9237 133.4 -20.0795 132.32 -21.2752C131.88 -21.7534 131.44 -22.2317 130.96 -22.7498L128.88 -25.181L119.6 -37.8151L104.44 -33.0325L101.04 -48.4964L85.44 -50.25L82.24 -51.2464C81.68 -51.3659 81.12 -51.4855 80.56 -51.6051C79.16 -51.8841 77.84 -52.163 76.52 -52.5616C75.48 -52.8406 74.48 -53 73.52 -53C72.56 -53 71.64 -52.8406 70.68 -52.5616C69.36 -52.163 68.04 -51.8841 66.6 -51.6051C66.04 -51.4855 65.44 -51.3659 64.84 -51.2464L61.6 -50.3695C59.04 -49.8514 56.44 -49.6123 53.68 -49.3732C51.24 -49.134 48.68 -48.9348 46.16 -48.4964L46 -48.4565L42.64 -33.0723L27.48 -37.8948L18.2 -25.2607L16.16 -22.8694C15.68 -22.3513 15.2 -21.8331 14.72 -21.3549C13.52 -20.1194 12.4 -18.9237 11.36 -17.6882C10.56 -16.7317 9.87999 -15.5759 9.43999 -14.4201C8.87999 -12.9055 8.44 -11.391 7.96 -9.75698C7.8 -9.15915 7.6 -8.52146 7.4 -7.88377L6.32 -4.81491L0 9.49315L11.8 20.1345L0 30.8158L6.32 45.1238L7.36 48.2325C7.48 48.6311 7.64 49.0695 7.8 49.468C8.16 50.5043 8.52 51.4608 8.72 52.4572C9.28 55.4065 10.72 57.8376 13.08 59.95C13.8 60.5877 14.48 61.3449 15.16 62.1819C15.44 62.5007 15.76 62.8594 16.08 63.2181L18.2 65.6892L27.44 78.2834L42.56 73.4609L45.96 88.9248L61.52 90.6386L64.8 91.1966C65.4 91.3161 66.04 91.4756 66.64 91.5951C68.2 91.9538 69.72 92.2726 71.2 92.6712C72.76 93.1096 74.2 93.1096 75.76 92.6712C77.24 92.2726 78.72 91.9538 80.32 91.5951C80.92 91.4756 81.52 91.3161 82.16 91.1966L85.44 90.7183C87.88 90.24 90.32 90.0408 92.92 89.7618C95.52 89.5226 98.16 89.2835 100.84 88.7654L101 88.7255L104.36 73.4211L119.52 78.2436L128.8 65.5696L130.84 63.2181C131.32 62.7 131.76 62.2217 132.24 61.7435C133.44 60.4681 134.6 59.2326 135.68 57.9572C136.44 57.0405 137.08 55.9645 137.48 54.8485C138.04 53.334 138.48 51.7797 138.96 50.1456C139.16 49.5478 139.32 48.9101 139.52 48.2724L140.68 45.084L146.92 30.9752L147 30.8158L135.2 20.1744L147 9.49315L140.72 -4.73521L139.64 -7.88377ZM105.2 -29.8042L118.48 -34.1086L122.32 -28.3296L122.6 -27.931L126.68 -22.8295L118.4 -11.5106L105.2 -15.7353V-29.8042ZM119.56 -7.72435L128.84 -20.3186C133.32 -17.2099 135.72 -13.065 136.44 -7.28594L120.84 -5.57217L117.44 9.85185L102.28 5.10905L93.04 17.6635C88.52 14.3555 86.04 10.091 85.48 4.6308L101.08 2.87717L104.44 -12.5867L119.56 -7.72435ZM120.28 14.7142L129.92 20.2142L120.28 25.7541V14.7142ZM116.76 13.1598V27.1889L103.52 31.5331L95.24 20.2541L103.48 8.97503L116.76 13.1598ZM89.28 61.1058L78.72 51.7398L84.4 38.9861L98.36 40.381L101.32 54.1311L97.6 56.0043L98.16 55.4463L89.28 61.1058ZM84.16 28.823C83.76 30.2976 83.28 31.7723 82.8 33.2868C82.6 33.8846 82.4 34.4824 82.2 35.1201C81.68 35.0005 81.16 34.881 80.64 34.8013C79.32 34.5223 78.12 34.2832 76.92 33.9245C74.56 33.2071 72.48 33.2071 70.4 33.8846C69.16 34.2832 67.88 34.5223 66.52 34.8013C65.96 34.9209 65.44 35.0404 64.84 35.16C64.64 34.5621 64.48 33.9643 64.28 33.3665C63.8 31.8121 63.32 30.3773 62.92 28.9027C62.52 27.3882 61.84 26.2324 60.76 25.1563C59.64 24.0403 58.56 22.8447 57.4 21.6092C56.96 21.1309 56.48 20.6128 56.04 20.0947C61.12 15.9896 63.92 11.1272 64.52 5.22863C65.16 5.3482 65.8 5.46775 66.4 5.58732C67.84 5.86631 69.16 6.1453 70.44 6.504C72.56 7.14169 74.6 7.14169 76.72 6.46415C77.92 6.10545 79.16 5.82645 80.48 5.54747C81 5.4279 81.56 5.30834 82.12 5.18877C82.28 5.70689 82.44 6.18516 82.6 6.66342C83 7.89894 83.4 9.0946 83.68 10.2903C84.2 12.6019 85.28 14.5149 87.04 16.1091C87.96 16.9461 88.8 17.9026 89.68 18.899C90.04 19.2976 90.4 19.6961 90.8 20.1345C90.4 20.5729 89.96 21.0512 89.56 21.4896C88.48 22.6853 87.48 23.8012 86.36 24.8773C85.32 26.073 84.56 27.3085 84.16 28.823ZM68.4 51.6601L58.04 61.0659L45.88 54.1311L48.72 40.5006L62.72 38.9462L68.4 51.6601ZM59.92 -18.9636C62.08 -17.0106 64.2 -15.0577 66.48 -13.0251L68.36 -11.3113L62.8 1.28296C58.92 1.20324 55.2 0.724976 51.28 0.206856C50.44 0.0872879 49.6 0.00758362 48.8 -0.111984C48.64 -0.789524 48.48 -1.46707 48.32 -2.14461C47.96 -3.81853 47.6 -5.37289 47.24 -6.96711C46.92 -8.52147 46.6 -10.036 46.32 -11.67C46.2 -12.3476 46.04 -13.0251 45.92 -13.7027C46.2 -13.8621 46.48 -14.0215 46.72 -14.1809C47.4 -14.5795 48.12 -15.0179 48.8 -15.4164C50.08 -16.1737 51.4 -16.8911 52.68 -17.6483C54.16 -18.4853 55.64 -19.3621 57.12 -20.1991L57.2 -20.2389C57.48 -20.3983 58.12 -20.757 58.12 -20.757C58.2 -20.6773 59.76 -19.123 59.92 -18.9636ZM78.68 -11.2715L89.16 -20.6773L101.24 -13.7027L98.36 0.0075798L84.48 1.44237L78.68 -11.2715ZM101.6 -17.2498L91.96 -22.7897L101.6 -28.3694V-17.2498ZM84.44 -47.0217L98.36 -45.5072L101.32 -31.8767L91.28 -26.3766L90.84 -26.0977L89.16 -24.902L78.68 -34.2281L84.44 -47.0217ZM81.04 -47.779C80.16 -45.3079 79.04 -42.8369 77.92 -40.4456C76.88 -38.2137 75.84 -35.9419 74.96 -33.5905L74.88 -33.431L86.6 -22.8295L74.8 -12.1483L81.12 2.19962C75.88 4.39167 71.04 4.39166 66 2.15976L72.28 -12.1084L60.52 -22.7897L72.32 -33.431L66 -47.6992C71 -50.0109 75.92 -50.0109 81.04 -47.779ZM48.72 -45.3478C51.28 -45.9456 53.84 -46.1449 56.52 -46.384C58.52 -46.5434 60.6 -46.7029 62.72 -47.0616L68.48 -34.3079L58.12 -25.0216L57.16 -25.6991L56.72 -25.9382C56.16 -26.2172 55.6 -26.5361 55.04 -26.8151C53.64 -27.5324 52.2 -28.2897 50.8 -29.0868C49.68 -29.6846 48.6 -30.3622 47.44 -31.0397C46.96 -31.3187 46.44 -31.6376 45.92 -31.9564L48.72 -45.3478ZM45.52 -28.3296L55.16 -22.7897L45.52 -17.2498V-28.3296ZM28.76 -34.1086L41.92 -29.8441V-15.7751L28.84 -11.5106C26.96 -13.8621 25.28 -16.2534 23.48 -18.7643C22.56 -20.0795 21.56 -21.4346 20.56 -22.8295L28.76 -34.1086ZM18.28 -20.3186L27.56 -7.72435L42.72 -12.507L46.08 2.95687L61.68 4.67065C61.04 10.3301 58.64 14.4751 54.12 17.7033L44.88 5.14891L29.72 9.93155L26.28 -5.53231L10.68 -7.24609C11.36 -12.786 13.84 -17.0904 18.28 -20.3186ZM51.88 20.1744L43.64 31.4933L30.32 27.1889V13.1997L43.56 8.93517L51.88 20.1744ZM3.96 8.73589L9.63999 -4.01781L23.64 -2.54316L26.52 11.0874L14.4 18.1019L3.96 8.73589ZM26.72 14.7142V25.6346L17.2 20.2142L26.72 14.7142ZM9.6 44.2868L3.92 31.5331L10.52 26.1128L10.88 25.794L14.36 22.3266L26.4 29.2614C25.76 33.5658 24.8 37.7904 23.56 42.8122C19.08 43.6492 14.52 43.968 9.67999 44.3267L9.6 44.2868ZM41.92 70.2327L28.84 74.4972L20.52 63.1384L28.8 51.8992L41.96 56.1239V70.2327H41.92ZM27.56 48.113L18.28 60.6674C13.88 57.5587 11.36 53.2941 10.72 47.6347L26.32 45.9209L29.68 30.457L44.88 35.2397L54.12 22.6853C58.68 25.9534 61.16 30.2179 61.68 35.7179L46.16 37.4317L42.76 52.8557L27.56 48.113ZM45.52 57.7978C45.6 57.8377 45.68 57.8377 45.76 57.8775C46.04 57.9572 46.24 58.0369 46.4 58.1565C48.64 59.4319 50.88 60.7072 53.28 62.1022L55.08 63.1384C51.88 65.171 48.76 66.8848 45.52 68.6783V57.7978ZM62.76 87.3306L48.8 85.9755L45.84 72.2254L58 65.2906L68.44 74.6167L62.76 87.3306ZM66 88.1277L72.32 73.8595L60.52 63.1783L72.32 52.497L66 38.2687C71.16 35.9571 76 35.9571 81.12 38.2288L74.84 52.497L86.6 63.1783L74.84 73.8595L81.16 88.1277C76.12 90.4393 71.28 90.4393 66 88.1277ZM98.4 85.9357L84.4 87.4103L78.72 74.6167L89.16 65.2906L101.28 72.3051L98.4 85.9357ZM101.56 68.6783L92 63.2181C95.08 61.3449 98.04 59.6311 101.56 57.6782V68.6783ZM118.36 74.4972L105.16 70.1529V56.1239L118.36 51.8195L126.6 63.1783L118.36 74.4972ZM128.84 60.6674L119.56 48.0731L104.44 52.9355L101 37.4317L85.44 35.7179C86.08 30.0984 88.48 25.9135 93 22.6454L102.24 35.2397L117.4 30.4172L120.84 45.8811L136.4 47.6347C135.84 53.2543 133.4 57.3992 128.84 60.6674ZM143.16 31.6527L137.48 44.3267L123.52 43.0115L120.6 29.3012L132.72 22.2867L143.16 31.6527ZM143.16 8.69604L132.76 18.062L120.6 11.0077L123.52 -2.62287L137.48 -4.01781L143.16 8.69604Z" fill="white" fill-opacity="0.1"/>
</svg>
